<svg width="20" height="17" viewBox="0 0 20 17" fill="none" xmlns="http://www.w3.org/2000/svg">
<path d="M14.75 7.00098C13.7835 7.00098 13 7.78448 13 8.75098V14.751C13 15.7175 13.7835 16.501 14.75 16.501H16.75C18.2688 16.501 19.5 15.2698 19.5 13.751V9.75098C19.5 8.23219 18.2688 7.00098 16.75 7.00098H14.75Z" fill="#005FF9"/>
<path d="M4.75 7.00098C5.7165 7.00098 6.5 7.78448 6.5 8.75098V14.751C6.5 15.7175 5.7165 16.501 4.75 16.501H2.75C1.23122 16.501 0 15.2698 0 13.751V9.75098C0 8.23219 1.23122 7.00098 2.75 7.00098H4.75Z" fill="#005FF9"/>
<path fill-rule="evenodd" clip-rule="evenodd" d="M3.02637 6.72363C3.02637 3.01027 6.03664 0 9.75 0C13.4634 0 16.4736 3.01027 16.4736 6.72363V7.74956C16.4736 8.16377 16.1378 8.49956 15.7236 8.49956C15.3094 8.49956 14.9736 8.16377 14.9736 7.74956V6.72363C14.9736 3.8387 12.6349 1.5 9.75 1.5C6.86507 1.5 4.52637 3.8387 4.52637 6.72363V7.74956C4.52637 8.16377 4.19058 8.49956 3.77637 8.49956C3.36215 8.49956 3.02637 8.16377 3.02637 7.74956V6.72363Z" fill="#005FF9"/>
</svg>
