<svg width="19" height="17" viewBox="0 0 19 17" fill="none" xmlns="http://www.w3.org/2000/svg">
<path fill-rule="evenodd" clip-rule="evenodd" d="M4.94537 0.95156C5.27166 0.36425 5.89071 0 6.56256 0H11.9347C12.6066 0 13.2257 0.364251 13.5519 0.951561L14.8217 3.2372C15.1365 3.80375 14.7268 4.5 14.0787 4.5H4.41861C3.77049 4.5 3.36082 3.80375 3.67557 3.2372L4.94537 0.95156ZM6.56256 1.5C6.43546 1.5 6.31834 1.56891 6.25661 1.68002L5.52329 3H12.974L12.2407 1.68002C12.179 1.56891 12.0619 1.5 11.9347 1.5H6.56256Z" fill="#005FF9"/>
<path fill-rule="evenodd" clip-rule="evenodd" d="M1.75 3C0.783502 3 0 3.7835 0 4.75V14.75C0 15.7165 0.783501 16.5 1.75 16.5H16.7471C17.7136 16.5 18.4971 15.7165 18.4971 14.75V4.75C18.4971 3.7835 17.7136 3 16.7471 3H1.75ZM12.2485 9.74999C12.2485 11.4068 10.9054 12.75 9.24854 12.75C7.59168 12.75 6.24854 11.4068 6.24854 9.74999C6.24854 8.09313 7.59168 6.74999 9.24854 6.74999C10.9054 6.74999 12.2485 8.09313 12.2485 9.74999ZM3.06055 6C2.64633 6 2.31055 6.33579 2.31055 6.75C2.31055 7.16421 2.64633 7.5 3.06055 7.5H4.56055C4.97476 7.5 5.31055 7.16421 5.31055 6.75C5.31055 6.33579 4.97476 6 4.56055 6L3.06055 6Z" fill="#005FF9"/>
</svg>
