<svg width="12" height="13" viewBox="0 0 12 13" fill="none" xmlns="http://www.w3.org/2000/svg">
<path d="M10.3842 4.84834C10.3842 4.84834 10.0448 9.05772 9.84796 10.8308C9.75421 11.6777 9.23109 12.174 8.37421 12.1896C6.74359 12.219 5.11109 12.2208 3.48109 12.1865C2.65671 12.1696 2.14234 11.6671 2.05046 10.8352C1.85234 9.04646 1.51484 4.84834 1.51484 4.84834M11.2488 2.83054H0.650024M9.20652 2.83053C8.7159 2.83053 8.2934 2.48365 8.19715 2.00303L8.04528 1.24303C7.95153 0.892402 7.63403 0.649902 7.27215 0.649902H4.62653C4.26465 0.649902 3.94715 0.892402 3.8534 1.24303L3.70153 2.00303C3.60528 2.48365 3.18278 2.83053 2.69215 2.83053" stroke="#8F959E" stroke-width="1.3" stroke-linecap="round" stroke-linejoin="round"/>
</svg>
