<svg width="18" height="20" viewBox="0 0 18 20" fill="none" xmlns="http://www.w3.org/2000/svg">
<path fill-rule="evenodd" clip-rule="evenodd" d="M10.356 0L1.75 2.19563e-06C0.783501 2.43405e-06 0 0.783504 0 1.75V17.7509C0 18.7174 0.783502 19.5009 1.75 19.5009H15.5008C16.4673 19.5009 17.2508 18.7174 17.2508 17.7509V7.0423H13.106C11.5872 7.0423 10.356 5.81108 10.356 4.2923V0ZM4.37549 9.24997C4.37549 8.83576 4.71127 8.49997 5.12549 8.49997H12.1255C12.5397 8.49997 12.8755 8.83576 12.8755 9.24997C12.8755 9.66418 12.5397 9.99997 12.1255 9.99997H5.12549C4.71127 9.99997 4.37549 9.66418 4.37549 9.24997ZM5.12549 11.5C4.71127 11.5 4.37549 11.8358 4.37549 12.25C4.37549 12.6642 4.71127 13 5.12549 13H12.1255C12.5397 13 12.8755 12.6642 12.8755 12.25C12.8755 11.8358 12.5397 11.5 12.1255 11.5H5.12549ZM4.37549 15.25C4.37549 14.8358 4.71127 14.5 5.12549 14.5H8.12549C8.5397 14.5 8.87549 14.8358 8.87549 15.25C8.87549 15.6642 8.5397 16 8.12549 16H5.12549C4.71127 16 4.37549 15.6642 4.37549 15.25Z" fill="#005FF9"/>
<path d="M17.0869 5.5423C16.9985 5.35284 16.8761 5.1789 16.7236 5.02993L12.0842 0.498128C12.0131 0.428668 11.9367 0.365858 11.856 0.310091V4.2923C11.856 4.98265 12.4156 5.5423 13.106 5.5423H17.0869Z" fill="#005FF9"/>
</svg>
