<svg width="20" height="18" viewBox="0 0 20 18" fill="none" xmlns="http://www.w3.org/2000/svg">
<path d="M3.34164e-05 14.7637C0.00741201 16.2762 1.23579 17.5 2.75 17.5H16.7517L16.5245 17.2728L7.63874 7.86436C7.54418 7.76424 7.38647 7.75944 7.286 7.85363L1.27168 13.4921L3.34164e-05 14.7637Z" fill="#005FF9"/>
<path d="M18.3558 16.9827C19.0488 16.4834 19.5 15.6694 19.5 14.75V13.0858L16.4654 10.0512C16.374 9.9597 16.2279 9.95308 16.1286 10.0359L13.6801 12.0765L17.6003 16.2273L18.3558 16.9827Z" fill="#005FF9"/>
<path d="M12.5 5.375C12.5 4.96079 12.8358 4.625 13.25 4.625C13.6642 4.625 14 4.96079 14 5.375C14 5.78921 13.6642 6.125 13.25 6.125C12.8358 6.125 12.5 5.78921 12.5 5.375Z" fill="#005FF9"/>
<path fill-rule="evenodd" clip-rule="evenodd" d="M19.5 2.75V10.9645L17.5262 8.99057C16.8861 8.35045 15.8636 8.30406 15.1682 8.88361L12.6482 10.9839L8.72926 6.83442C8.06736 6.1336 6.96335 6.10002 6.26009 6.75933L0.22812 12.4143L0 12.6424V2.75C0 1.23122 1.23122 0 2.75 0H16.75C18.2688 0 19.5 1.23122 19.5 2.75ZM13.25 3.125C12.0074 3.125 11 4.13236 11 5.375C11 6.61764 12.0074 7.625 13.25 7.625C14.4926 7.625 15.5 6.61764 15.5 5.375C15.5 4.13236 14.4926 3.125 13.25 3.125Z" fill="#005FF9"/>
</svg>
