<svg width="32" height="32" viewBox="0 0 32 32" fill="none" xmlns="http://www.w3.org/2000/svg">
<path d="M29.3331 16.9303C29.3311 18.8897 29.3162 20.5552 29.2048 21.9217C29.0756 23.5075 28.8109 24.8326 28.2182 25.9331C27.9568 26.4186 27.6356 26.8532 27.2446 27.2443C26.1347 28.3542 24.7207 28.8569 22.9288 29.0978C21.1781 29.3332 18.9344 29.3332 16.0712 29.3332H15.9289C13.0658 29.3332 10.822 29.3332 9.07134 29.0978C7.27942 28.8569 5.86544 28.3542 4.7556 27.2443C3.77169 26.2604 3.26358 25.0358 2.99339 23.5167C2.72796 22.0243 2.6794 20.1677 2.66931 17.8621C2.66675 17.2757 2.66675 16.6554 2.66675 16.0011V15.9287C2.66673 13.0656 2.66672 10.8218 2.90209 9.0711C3.14301 7.27918 3.64576 5.8652 4.7556 4.75536C5.86544 3.64551 7.27942 3.14277 9.07134 2.90185C10.6282 2.69253 12.6314 2.66937 15.0695 2.66682C15.5832 2.66628 16.0001 3.08298 16.0001 3.59673C16.0001 4.11049 15.583 4.52677 15.0693 4.52731C12.5967 4.52992 10.7568 4.55246 9.31925 4.74572C7.73363 4.9589 6.7777 5.36435 6.07115 6.0709C5.3646 6.77745 4.95915 7.73339 4.74597 9.319C4.52919 10.9314 4.52721 13.0501 4.52721 15.9998C4.52721 16.3601 4.52721 16.7084 4.52764 17.0457L5.76936 15.9592C6.89961 14.9703 8.60308 15.027 9.66505 16.089L14.9856 21.4095C15.838 22.2619 17.1798 22.3781 18.166 21.685L18.5359 21.4251C19.9551 20.4277 21.8752 20.5433 23.1646 21.7037L26.6753 24.8633C27.0286 24.1212 27.2385 23.1461 27.3505 21.7707C27.4561 20.4746 27.4706 18.9005 27.4726 16.9303C27.4732 16.4166 27.8894 15.9998 28.4032 15.9998C28.9169 15.9998 29.3336 16.4165 29.3331 16.9303Z" fill="black"/>
<path fill-rule="evenodd" clip-rule="evenodd" d="M23.3334 14.6665C20.505 14.6665 19.0908 14.6665 18.2121 13.7878C17.3334 12.9091 17.3334 11.4949 17.3334 8.6665C17.3334 5.83808 17.3334 4.42386 18.2121 3.54518C19.0908 2.6665 20.505 2.6665 23.3334 2.6665C26.1618 2.6665 27.5761 2.6665 28.4547 3.54518C29.3334 4.42386 29.3334 5.83808 29.3334 8.6665C29.3334 11.4949 29.3334 12.9091 28.4547 13.7878C27.5761 14.6665 26.1618 14.6665 23.3334 14.6665ZM26.0405 7.29273L24.0405 5.29273C23.65 4.90221 23.0168 4.90221 22.6263 5.29273L20.6263 7.29273C20.2358 7.68325 20.2358 8.31642 20.6263 8.70694C21.0168 9.09747 21.65 9.09747 22.0405 8.70694L22.3334 8.41405V11.3332C22.3334 11.8855 22.7811 12.3332 23.3334 12.3332C23.8857 12.3332 24.3334 11.8855 24.3334 11.3332V8.41405L24.6263 8.70694C25.0168 9.09747 25.65 9.09747 26.0405 8.70694C26.431 8.31642 26.431 7.68325 26.0405 7.29273Z" fill="black"/>
</svg>
