<svg width="16" height="20" viewBox="0 0 16 20" fill="none" xmlns="http://www.w3.org/2000/svg">
<path d="M7.75 0C3.44809 0 0 3.59034 0 7.97C0 10.1801 0.875911 12.1849 2.29429 13.6307C2.30774 13.6444 2.31732 13.6559 2.32405 13.665L6.34487 19.1098C7.04301 20.0552 8.45604 20.0574 9.15712 19.1142L13.3267 13.5046C14.6737 12.0695 15.5 10.1165 15.5 7.97C15.5 3.59034 12.0519 0 7.75 0Z" fill="#005FF9"/>
<path d="M10.75 7.75C10.75 9.40685 9.40685 10.75 7.75 10.75C6.09315 10.75 4.75 9.40685 4.75 7.75C4.75 6.09315 6.09315 4.75 7.75 4.75C9.40685 4.75 10.75 6.09315 10.75 7.75Z" fill="white"/>
</svg>
