<svg width="24" height="24" viewBox="0 0 24 24" fill="none" xmlns="http://www.w3.org/2000/svg">
<path d="M19 2.25C20.5188 2.25 21.75 3.48122 21.75 5V19C21.75 20.5188 20.5188 21.75 19 21.75H5C3.48122 21.75 2.25 20.5188 2.25 19V5C2.25 3.48122 3.48122 2.25 5 2.25H19ZM10.8486 12.957C10.5557 12.6641 10.081 12.6641 9.78809 12.957L8.10547 14.6387L7.53027 14.0635C7.23738 13.7706 6.76262 13.7706 6.46973 14.0635C6.177 14.3564 6.17689 14.8312 6.46973 15.124L7.56836 16.2227C7.86516 16.5195 8.34676 16.5195 8.64355 16.2227L10.8486 14.0176C11.1415 13.7247 11.1415 13.2499 10.8486 12.957ZM13 13.8428C12.5858 13.8428 12.25 14.1786 12.25 14.5928C12.25 15.007 12.5858 15.3428 13 15.3428H17C17.4142 15.3428 17.75 15.007 17.75 14.5928C17.75 14.1786 17.4142 13.8428 17 13.8428H13ZM10.8486 7.77148C10.5557 7.47859 10.081 7.47859 9.78809 7.77148L8.10547 9.45312L7.53027 8.87793C7.23738 8.58504 6.76262 8.58504 6.46973 8.87793C6.17724 9.17086 6.17697 9.64572 6.46973 9.93848L7.56836 11.0371C7.8651 11.3336 8.34682 11.3336 8.64355 11.0371L10.8486 8.83203C11.1414 8.53922 11.1413 8.0644 10.8486 7.77148ZM13 8.65625C12.5858 8.65625 12.25 8.99204 12.25 9.40625C12.25 9.82046 12.5858 10.1562 13 10.1562H17C17.4142 10.1562 17.75 9.82046 17.75 9.40625C17.75 8.99204 17.4142 8.65625 17 8.65625H13Z" fill="#005FF9"/>
</svg>
