<svg width="19" height="17" viewBox="0 0 19 17" fill="none" xmlns="http://www.w3.org/2000/svg">
<path fill-rule="evenodd" clip-rule="evenodd" d="M1.76145 0.111657C0.726033 -0.348479 -0.338322 0.695931 0.102134 1.73986L2.82175 8.18567C2.84797 8.2478 2.84797 8.3179 2.82175 8.38004L0.102133 14.8258C-0.338322 15.8698 0.726033 16.9142 1.76145 16.454L17.5782 9.42514C18.568 8.98526 18.568 7.58045 17.5782 7.14057L1.76145 0.111657ZM6.80176 7.53271C6.38754 7.53271 6.05176 7.8685 6.05176 8.28271C6.05176 8.69693 6.38754 9.03271 6.80176 9.03271L9.80176 9.03271C10.216 9.03272 10.5518 8.69693 10.5518 8.28271C10.5518 7.8685 10.216 7.53272 9.80176 7.53272L6.80176 7.53271Z" fill="#F9FAFB"/>
</svg>
